<?xml version="1.0" encoding="UTF-8"?>
<svg version="1.1" xmlns="http://www.w3.org/2000/svg" width="242" height="240">
<path d="M0 0 C79.86 0 159.72 0 242 0 C242 79.2 242 158.4 242 240 C162.14 240 82.28 240 0 240 C0 160.8 0 81.6 0 0 Z " fill="#FBFBFB" transform="translate(0,0)"/>
<path d="M0 0 C12.54 0 25.08 0 38 0 C38 9.57 38 19.14 38 29 C46.25 29 54.5 29 63 29 C63 33.62 63 38.24 63 43 C50.46 43 37.92 43 25 43 C25 33.1 25 23.2 25 13 C16.75 13 8.5 13 0 13 C0 8.71 0 4.42 0 0 Z " fill="#070707" transform="translate(39,36)"/>
<path d="M0 0 C12.54 0 25.08 0 38 0 C38 9.57 38 19.14 38 29 C46.25 29 54.5 29 63 29 C63 33.29 63 37.58 63 42 C50.46 42 37.92 42 25 42 C25 32.43 25 22.86 25 13 C16.75 13 8.5 13 0 13 C0 8.71 0 4.42 0 0 Z " fill="#020202" transform="translate(142,159)"/>
<path d="M0 0 C14.19 0 28.38 0 43 0 C43 4.29 43 8.58 43 13 C33.43 13 23.86 13 14 13 C14 20.92 14 28.84 14 37 C2.78 37 -8.44 37 -20 37 C-20 32.71 -20 28.42 -20 24 C-13.4 24 -6.8 24 0 24 C0 16.08 0 8.16 0 0 Z " fill="#070707" transform="translate(40,113)"/>
<path d="M0 0 C4.29 0 8.58 0 13 0 C13 8.58 13 17.16 13 26 C20.92 26 28.84 26 37 26 C37 38.54 37 51.08 37 64 C32.71 64 28.42 64 24 64 C24 55.75 24 47.5 24 39 C16.08 39 8.16 39 0 39 C0 26.13 0 13.26 0 0 Z " fill="#060606" transform="translate(116,157)"/>
<path d="M0 0 C4.29 0 8.58 0 13 0 C13 12.21 13 24.42 13 37 C4.75 37 -3.5 37 -12 37 C-12 45.58 -12 54.16 -12 63 C-16.29 63 -20.58 63 -25 63 C-25 50.13 -25 37.26 -25 24 C-16.75 24 -8.5 24 0 24 C0 16.08 0 8.16 0 0 Z " fill="#020202" transform="translate(40,63)"/>
<path d="M0 0 C4.29 0 8.58 0 13 0 C13 12.87 13 25.74 13 39 C5.08 39 -2.84 39 -11 39 C-11 47.25 -11 55.5 -11 64 C-15.29 64 -19.58 64 -24 64 C-24 51.46 -24 38.92 -24 26 C-16.08 26 -8.16 26 0 26 C0 17.42 0 8.84 0 0 Z " fill="#010101" transform="translate(191,35)"/>
<path d="M0 0 C4.29 0 8.58 0 13 0 C13 8.25 13 16.5 13 25 C20.92 25 28.84 25 37 25 C37 37.87 37 50.74 37 64 C32.71 64 28.42 64 24 64 C24 55.42 24 46.84 24 38 C16.08 38 8.16 38 0 38 C0 25.46 0 12.92 0 0 Z " fill="#040404" transform="translate(91,16)"/>
<path d="M0 0 C4.29 0 8.58 0 13 0 C13 12.21 13 24.42 13 37 C5.41 37.33 -2.18 37.66 -10 38 C-10.33 46.25 -10.66 54.5 -11 63 C-15.29 63 -19.58 63 -24 63 C-24 50.13 -24 37.26 -24 24 C-16.08 24 -8.16 24 0 24 C0 16.08 0 8.16 0 0 Z " fill="#060606" transform="translate(63,139)"/>
<path d="M0 0 C10.89 0 21.78 0 33 0 C33 4.29 33 8.58 33 13 C26.4 13 19.8 13 13 13 C13 20.92 13 28.84 13 37 C-1.19 37 -15.38 37 -30 37 C-30 32.71 -30 28.42 -30 24 C-20.1 24 -10.2 24 0 24 C0 16.08 0 8.16 0 0 Z " fill="#010101" transform="translate(191,88)"/>
<path d="M0 0 C12.54 0 25.08 0 38 0 C38 7.92 38 15.84 38 24 C46.25 24 54.5 24 63 24 C63 28.29 63 32.58 63 37 C50.46 37 37.92 37 25 37 C25 29.08 25 21.16 25 13 C16.75 13 8.5 13 0 13 C0 8.71 0 4.42 0 0 Z " fill="#010101" transform="translate(115,12)"/>
<path d="M0 0 C12.21 0 24.42 0 37 0 C37.495 11.385 37.495 11.385 38 23 C46.25 23.33 54.5 23.66 63 24 C63 27.96 63 31.92 63 36 C50.13 36 37.26 36 24 36 C24 28.08 24 20.16 24 12 C16.08 12 8.16 12 0 12 C0 8.04 0 4.08 0 0 Z " fill="#010101" transform="translate(66,189)"/>
<path d="M0 0 C3.96 0 7.92 0 12 0 C12 12.54 12 25.08 12 38 C4.41 38.33 -3.18 38.66 -11 39 C-11.33 46.92 -11.66 54.84 -12 63 C-15.96 63 -19.92 63 -24 63 C-24 50.46 -24 37.92 -24 25 C-16.08 25 -8.16 25 0 25 C0 16.75 0 8.5 0 0 Z " fill="#010101" transform="translate(216,112)"/>
<path d="M0 0 C4.29 0 8.58 0 13 0 C13 12.87 13 25.74 13 39 C5.08 39 -2.84 39 -11 39 C-11.33 44.61 -11.66 50.22 -12 56 C-16.29 56 -20.58 56 -25 56 C-25.02722649 52.68744342 -25.04694781 49.37511557 -25.0625 46.0625 C-25.07087891 45.13630859 -25.07925781 44.21011719 -25.08789062 43.25585938 C-25.09111328 42.33740234 -25.09433594 41.41894531 -25.09765625 40.47265625 C-25.10289307 39.64000244 -25.10812988 38.80734863 -25.11352539 37.94946289 C-24.95966273 33.95201178 -24.4417715 29.97594354 -24 26 C-16.08 26 -8.16 26 0 26 C0 17.42 0 8.84 0 0 Z " fill="#030303" transform="translate(140,63)"/>
<path d="M0 0 C12.21 0 24.42 0 37 0 C37 4.29 37 8.58 37 13 C29.08 13 21.16 13 13 13 C13 22.9 13 32.8 13 43 C8.71 43 4.42 43 0 43 C0 28.81 0 14.62 0 0 Z " fill="#040404" transform="translate(91,131)"/>
<path d="M0 0 C12.87 0 25.74 0 39 0 C39 9.9 39 19.8 39 30 C34.71 30 30.42 30 26 30 C26 24.39 26 18.78 26 13 C17.42 13 8.84 13 0 13 C0 8.71 0 4.42 0 0 Z " fill="#030303" transform="translate(66,88)"/>
<path d="M0 0 C4.29 0 8.58 0 13 0 C13 5.61 13 11.22 13 17 C21.25 17 29.5 17 38 17 C38 21.29 38 25.58 38 30 C25.46 30 12.92 30 0 30 C0 20.1 0 10.2 0 0 Z " fill="#010101" transform="translate(139,119)"/>
</svg>
